<svg width="191" height="240" viewBox="0 0 191 240" fill="none" xmlns="http://www.w3.org/2000/svg">
<path d="M106.847 166.163C100.164 166.033 96.7425 162.391 95.003 156.108C93.544 150.819 92.8387 145.246 91.7537 139.814C90.8453 135.236 91.9534 132.501 96.2034 130.541C103.362 127.249 108.972 121.597 113.23 113.361C106.159 118.538 91.1234 131.255 90.8891 127.923C90.8891 116.488 96.6328 103.143 99.739 92.0168C83.3286 117.274 79.2829 134.086 91.1592 163.527C88.449 162.781 87.1874 164.113 86.5075 163.439C80.0147 157 73.3695 164.725 66.7035 170.05C65.8655 170.717 73.1821 174.364 73.4857 174.435C80.0351 176.147 79.5587 178.952 86.2212 179.565C93.1896 180.212 96.0025 172.768 102.944 171.907C105.689 162.748 118.626 176.238 125.176 174.435C119.709 165.714 112.86 166.264 106.847 166.163Z" fill="#58C887"/>
<path d="M118.01 102.322C114.368 104.712 112.212 108.57 112.283 111.967C112.299 113.014 120.024 109.101 120.491 109.991C121.052 111.069 114.4 116.804 115.412 117.356C118.002 118.77 121.794 118.429 125.223 116.192C129.971 113.074 133.969 101.156 133.969 101.156C133.969 101.156 122.766 99.2093 118.01 102.322Z" fill="#58C887"/>
<path d="M113.01 95.5594C114.95 96.6136 117.79 96.3582 120.357 94.6829C123.912 92.3516 126.906 83.423 126.906 83.423C126.906 83.423 118.516 81.963 114.953 84.2905C112.228 86.0902 110.608 88.9739 110.663 91.5192C110.679 92.3062 116.462 89.3719 116.81 90.0436C117.23 90.8514 112.243 95.1419 113.01 95.5594Z" fill="#58C887"/>
<path d="M129.797 85.5857C127.736 86.9432 126.519 89.1241 126.559 91.0457C126.567 91.6422 130.934 89.4289 131.2 89.9345C131.515 90.5427 127.744 93.7907 128.325 94.1006C129.794 94.8993 131.939 94.7087 133.879 93.4367C136.565 91.6772 138.829 84.9309 138.829 84.9309C138.829 84.9309 132.492 83.8223 129.797 85.5857Z" fill="#58C887"/>
<path d="M135.858 106.373C135.69 106.719 138.796 107.051 138.804 107.434C138.804 107.895 135.748 108.358 135.985 108.745C136.578 109.727 137.849 110.395 139.31 110.387C141.333 110.363 144.54 107.379 144.54 107.379C144.54 107.379 141.285 104.446 139.262 104.47C137.707 104.488 136.386 105.284 135.858 106.373Z" fill="#58C887"/>
<path d="M143.741 91.252C142.09 91.6008 140.827 92.7146 140.447 93.9969C140.327 94.3963 143.686 94.0929 143.756 94.5013C143.835 94.9824 140.659 96.1273 140.972 96.4916C141.77 97.4058 143.235 97.8583 144.78 97.5328C146.925 97.0816 149.844 93.2306 149.844 93.2306C149.844 93.2306 145.891 90.7982 143.741 91.252Z" fill="#58C887"/>
<path d="M102.13 106.763C103.594 107.568 105.743 107.374 107.685 106.102C110.371 104.339 112.63 97.5909 112.63 97.5909C112.63 97.5909 106.295 96.4862 103.601 98.2483C101.539 99.6085 100.322 101.788 100.364 103.71C100.372 104.304 104.738 102.092 105.006 102.596C105.324 103.207 101.556 106.451 102.13 106.763Z" fill="#58C887"/>
<path d="M112.591 77.7751C112.765 78.3339 116.304 74.7047 116.7 75.1002C117.173 75.5631 114.479 79.9612 115.112 80.052C116.731 80.3113 118.722 79.3842 120.216 77.4937C122.286 74.8914 122.578 67.6938 122.578 67.6938C122.578 67.6938 116.242 68.8349 114.172 71.4463C112.583 73.4599 112.023 75.9585 112.591 77.7751Z" fill="#58C887"/>
<path d="M133.196 75.0987C133.661 75.5616 130.975 79.9597 131.607 80.0505C133.222 80.3098 135.218 79.3827 136.712 77.4923C138.773 74.8899 139.065 67.6924 139.065 67.6924C139.065 67.6924 132.729 68.8373 130.66 71.4487C129.079 73.4585 128.52 75.9609 129.079 77.7788C129.253 78.3338 132.8 74.7045 133.196 75.0987Z" fill="#58C887"/>
<path d="M112.907 62.6899C113.38 63.158 110.686 67.551 111.315 67.6508C112.934 67.9062 114.929 66.974 116.423 65.0926C118.493 62.4864 118.785 55.2849 118.785 55.2849C118.785 55.2849 112.449 56.4298 110.379 59.0412C108.788 61.0471 108.231 63.5496 108.799 65.3662C108.973 65.9198 112.512 62.2945 112.907 62.6899Z" fill="#58C887"/>
<path d="M99.4033 64.7296C100.044 65.0836 100.414 57.8731 101.11 57.8342C101.955 57.7836 103.04 64.8411 103.735 64.2577C105.49 62.8041 106.627 59.8089 106.477 56.4299C106.295 51.7569 100.566 44.5464 100.566 44.5464C100.566 44.5464 95.443 52.3209 95.6427 57.0108C95.795 60.6051 97.3533 63.5899 99.4033 64.7296Z" fill="#58C887"/>
<path d="M95.2337 79.6949C95.7554 79.8375 94.9867 74.5213 95.4922 74.3658C96.0913 74.179 97.9024 79.114 98.3098 78.5746C99.3937 77.1833 99.7792 74.8118 99.2044 72.3754C98.3906 69.0055 93.1848 64.7876 93.1848 64.7876C93.1848 64.7876 90.5761 71.3731 91.3934 74.747C92.0167 77.3402 93.575 79.2346 95.2337 79.6949Z" fill="#58C887"/>
<path d="M67.2344 84.3086C69.4957 85.1761 71.7615 84.7806 73.0347 83.4918C73.4237 83.0898 69.0709 80.8324 69.2406 80.2748C69.4403 79.6071 74.092 80.6833 73.9177 79.9935C73.5056 78.2158 71.9681 76.5172 69.8477 75.7068C66.8985 74.571 60.8801 77.0709 60.8801 77.0709C60.8801 77.0709 64.2887 83.1819 67.2344 84.3086Z" fill="#58C887"/>
<path d="M52.4311 77.631C54.6923 78.4945 56.9559 78.1029 58.2313 76.8128C58.6146 76.4134 54.271 74.1547 54.4372 73.592C54.6346 72.9242 59.2864 74.0095 59.1201 73.3145C58.6954 71.542 57.1625 69.8473 55.0478 69.0305C52.0987 67.8985 46.0791 70.3932 46.0791 70.3932C46.0791 70.3932 49.4785 76.5029 52.4311 77.631Z" fill="#58C887"/>
<path d="M67.0682 111.004C67.3233 110.477 62.5515 109.963 62.5515 109.369C62.5353 108.663 67.2517 107.955 66.887 107.375C65.9682 105.858 64.0197 104.82 61.7758 104.838C58.6616 104.86 53.7097 109.452 53.7097 109.452C53.7097 109.452 58.717 113.955 61.8312 113.929C64.2263 113.9 66.2486 112.695 67.0682 111.004Z" fill="#58C887"/>
<path d="M60.362 93.3224C60.6171 92.8063 55.843 92.2838 55.8361 91.6964C55.828 90.9897 60.5363 90.2831 60.1727 89.7022C59.2539 88.1761 57.3124 87.1439 55.0673 87.1621C51.9531 87.1867 47.0012 91.7755 47.0012 91.7755C47.0012 91.7755 52.0096 96.28 55.125 96.2462C57.5109 96.2268 59.5413 95.0132 60.362 93.3224Z" fill="#58C887"/>
<path d="M72.0573 71.0233C72.5859 70.9727 70.3259 66.2297 70.761 65.8938C71.2747 65.488 74.4109 69.5062 74.6406 68.8385C75.265 67.1347 74.9407 64.7437 73.686 62.6536C71.9384 59.7608 65.8011 57.6875 65.8011 57.6875C65.8011 57.6875 65.2401 64.863 66.9958 67.7519C68.3267 69.9782 70.349 71.2061 72.0573 71.0233Z" fill="#58C887"/>
<path d="M86.2812 71.0233C86.8122 70.9727 84.5509 66.2297 84.9872 65.8938C85.5009 65.488 88.6348 69.5062 88.8656 68.8385C89.4797 67.1347 89.1657 64.7437 87.9122 62.6536C86.1646 59.7608 80.0273 57.6875 80.0273 57.6875C80.0273 57.6875 79.4663 64.863 81.2197 67.7519C82.5529 69.9782 84.5752 71.2061 86.2812 71.0233Z" fill="#58C887"/>
<path d="M100.039 80.5486C99.4609 84.0404 100.364 87.3092 102.11 88.9222C102.649 89.4214 104.446 82.5882 105.125 82.7282C105.939 82.9007 105.583 89.9491 106.361 89.5679C108.341 88.6097 110.024 86.0268 110.572 82.7438C111.334 78.2043 107.261 69.8242 107.261 69.8242C107.261 69.8242 100.796 76 100.039 80.5486Z" fill="#58C887"/>
<path d="M82.876 87.5213C84.717 90.4115 87.4342 91.9609 89.6804 91.6653C90.3672 91.5797 87.2368 85.3715 87.8082 84.9229C88.4777 84.3822 92.7462 89.5661 93.0463 88.6701C93.807 86.4062 93.3129 83.2541 91.5931 80.5325C89.2072 76.7723 81.0245 74.24 81.0245 74.24C81.0245 74.24 80.4866 83.7533 82.876 87.5213Z" fill="#58C887"/>
<path d="M74.7824 106.102C78.8351 106.611 82.5091 105.02 84.1909 102.339C84.7207 101.52 76.7158 99.5388 76.8116 98.5404C76.9282 97.3397 85.0439 97.2178 84.5384 96.1274C83.2606 93.3552 80.1382 91.1574 76.3222 90.6699C71.0529 89.9969 61.8245 96.6512 61.8245 96.6512C61.8245 96.6512 69.5027 105.432 74.7824 106.102Z" fill="#58C887"/>
<path d="M84.5471 113.155C83.6791 111.267 81.561 109.781 78.9696 109.446C75.381 108.987 69.1086 113.52 69.1086 113.52C69.1086 113.52 74.3214 119.485 77.9181 119.936C80.6687 120.288 83.1631 119.207 84.3093 117.379C84.6648 116.824 79.2294 115.472 79.2928 114.798C79.3679 113.986 84.8865 113.9 84.5471 113.155Z" fill="#58C887"/>
<path d="M190.379 98.0753C189.309 96.9671 188.128 95.9731 186.852 95.1094C184.589 93.3288 181.666 92.6129 178.836 93.1455C176.711 93.7762 174.477 92.5653 173.846 90.4401C173.215 88.3149 174.426 86.0809 176.552 85.4502C179.812 84.5223 183.286 84.6771 186.451 85.891C187.852 86.4371 189.195 87.1215 190.459 87.9351C189.34 73.1487 184.769 58.8312 177.113 46.1319C175.512 46.0101 173.904 46.0101 172.303 46.1319C168.295 46.1319 165.169 47.1739 164.688 48.2962C163.814 50.3327 161.454 51.2746 159.417 50.4004C157.381 49.5261 156.439 47.1664 157.313 45.1299C159.267 41.5137 162.883 39.0979 166.972 38.677C168.477 38.3403 170.004 38.1124 171.542 37.9957C163.607 27.5143 153.608 18.7709 142.163 12.3045C140.8 12.9859 139.358 13.7474 138.155 14.549C133.867 17.1141 130.139 20.1601 129.578 21.9637C129.142 23.8119 127.468 25.1005 125.57 25.0499H124.648C122.505 24.5349 121.18 22.3861 121.682 20.2403C123.157 16.2814 125.907 12.9257 129.498 10.7013C130.861 9.69931 132.223 8.81756 133.506 8.01596C121.516 2.74747 108.566 0.0180359 95.4701 0H92.6245C92.4947 0.199898 92.3469 0.387772 92.1836 0.561117C91.0478 1.6563 90.0273 2.86521 89.1375 4.1683C87.3044 6.52449 86.2663 9.40122 86.1716 12.3847C86.1716 14.5981 84.377 16.3926 82.1636 16.3926C79.9502 16.3926 78.1556 14.5981 78.1556 12.3847C78.098 10.0039 78.5068 7.6347 79.358 5.41077C79.9557 3.85668 80.7077 2.36621 81.6025 0.961915C68.0941 2.94787 55.1744 7.82859 43.7271 15.2704C43.7271 15.2704 43.7271 15.2704 43.7271 15.551C43.463 17.1682 43.3158 18.8024 43.2862 20.4407C42.8348 23.5033 43.443 26.6285 45.0096 29.2983C46.6699 30.881 46.7326 33.5097 45.1499 35.17C43.5673 36.8303 40.9385 36.893 39.2782 35.3103C37.0097 32.9396 35.5989 29.878 35.2702 26.613C35.1315 24.9191 35.1315 23.2167 35.2702 21.5229C26.2693 28.887 18.6782 37.8223 12.8656 47.8954C13.0289 48.3047 13.1236 48.7381 13.1462 49.1779C13.2504 50.9094 13.5189 52.6273 13.9478 54.3081C14.6662 57.8948 16.6421 61.1072 19.5189 63.3662C21.4227 64.5505 22.0058 67.0535 20.8215 68.9573C19.6371 70.8611 17.1341 71.4443 15.2303 70.2599C12.9177 68.7319 10.9628 66.7219 9.49891 64.3682C8.56405 62.783 7.79803 61.1037 7.21437 59.3582C2.47894 70.7965 0.0280559 83.0504 0 95.43V98.436C0.169838 98.5427 0.331159 98.6635 0.480958 98.7967C1.62323 99.913 2.85669 100.932 4.1683 101.843C6.98691 103.979 10.3466 105.284 13.8676 105.61C16.081 105.61 17.8756 107.405 17.8756 109.618C17.8756 111.832 16.081 113.626 13.8676 113.626C11.0961 113.449 8.38019 112.77 5.85165 111.622C4.30808 110.953 2.82062 110.163 1.40279 109.258C3.29606 122.178 7.84011 134.568 14.7494 145.65C15.0425 145.614 15.338 145.614 15.6311 145.65C17.1792 146.202 18.7759 146.604 20.4006 146.852C22.9823 147.469 25.6967 147.186 28.0959 146.051C29.892 144.757 32.397 145.164 33.6906 146.96C34.9847 148.756 34.5774 151.261 32.7813 152.555C32.6665 152.637 32.5473 152.714 32.4246 152.784C30.642 153.882 28.648 154.592 26.5729 154.868C25.5128 155.044 24.4412 155.137 23.3665 155.149H21.5629C29.398 164.867 39.0498 172.966 49.9795 178.996C50.2345 178.861 50.5031 178.753 50.7811 178.676C52.3197 178.368 53.8142 177.87 55.23 177.193C57.748 176.223 59.7891 174.311 60.9213 171.862C61.6152 169.76 63.8812 168.619 65.9834 169.312C68.0856 170.006 69.2269 172.272 68.5335 174.374C68.5099 174.446 68.4839 174.517 68.4563 174.588C67.538 177.066 66.0074 179.272 64.0075 181C62.7805 182.06 61.4358 182.974 59.9995 183.726C71.2885 188.328 83.359 190.71 95.5503 190.74V190.459C96.6725 189.257 97.7547 187.934 98.7567 186.451C100.807 184.155 102.289 181.409 103.085 178.435C102.385 176.378 103.452 174.139 105.49 173.385C107.567 172.621 109.871 173.684 110.636 175.762C110.644 175.785 110.652 175.808 110.66 175.83C111.432 179.106 110.823 182.555 108.977 185.369C108.156 186.9 107.232 188.373 106.212 189.778C119.886 188.278 133.07 183.82 144.848 176.712C144.965 175.097 144.965 173.476 144.848 171.862C144.991 169.783 144.561 167.703 143.606 165.85C141.677 164.792 140.962 162.377 142.003 160.439C143.058 158.494 145.491 157.772 147.437 158.827C147.442 158.83 147.448 158.833 147.454 158.836C150.111 160.569 151.87 163.384 152.263 166.532C152.585 168.196 152.76 169.886 152.784 171.582C162.87 163.961 171.355 154.428 177.754 143.526C177.168 142.007 176.471 140.534 175.67 139.117C173.946 136.031 171.982 133.626 170.9 133.506C168.687 133.229 167.117 131.21 167.393 128.997C167.67 126.783 169.689 125.213 171.902 125.49C175.148 126.099 178.025 127.955 179.918 130.66C180.903 131.926 181.787 133.265 182.564 134.668C187.7 123.312 190.547 111.054 190.94 98.5963C190.736 98.4425 190.547 98.2682 190.379 98.0753ZM95.39 162.003C58.6227 161.981 28.8354 132.157 28.8575 95.39C28.8795 58.6227 58.7029 28.8354 95.4701 28.8575C132.221 28.8795 162.003 58.6788 162.003 95.43C161.981 132.204 132.164 162.003 95.39 162.003Z" fill="#58C887"/>
<path d="M41.7142 219.897C42.0982 220.473 42.2902 221.017 42.2902 221.529C42.2902 222.212 42.0022 222.788 41.4262 223.257C40.8715 223.705 40.2209 223.929 39.4742 223.929C38.9622 223.929 38.4822 223.812 38.0342 223.577C37.5862 223.343 37.2022 222.991 36.8822 222.521L32.7222 216.441C32.4235 216.015 32.1035 215.705 31.7622 215.513C31.4422 215.3 31.0582 215.193 30.6102 215.193H28.5302V220.921C28.5302 221.817 28.2742 222.532 27.7622 223.065C27.2502 223.577 26.5462 223.833 25.6502 223.833C24.7542 223.833 24.0395 223.577 23.5062 223.065C22.9942 222.532 22.7382 221.817 22.7382 220.921V203.801C22.7382 202.927 22.9729 202.255 23.4422 201.785C23.9115 201.316 24.5835 201.081 25.4582 201.081H33.4902C36.2209 201.081 38.2689 201.679 39.6342 202.873C41.0209 204.047 41.7142 205.753 41.7142 207.993C41.7142 209.7 41.2449 211.151 40.3062 212.345C39.3675 213.519 38.0449 214.308 36.3382 214.713C37.0422 214.82 37.6502 215.055 38.1622 215.417C38.6955 215.78 39.2182 216.324 39.7302 217.049L41.7142 219.897ZM32.5622 210.777C33.8635 210.777 34.7915 210.575 35.3462 210.169C35.9222 209.764 36.2102 209.103 36.2102 208.185C36.2102 207.247 35.9222 206.575 35.3462 206.169C34.7915 205.743 33.8635 205.529 32.5622 205.529H28.4662V210.777H32.5622ZM51.6032 223.641C50.7285 223.641 50.0565 223.407 49.5872 222.937C49.1179 222.468 48.8832 221.796 48.8832 220.921V203.801C48.8832 202.927 49.1179 202.255 49.5872 201.785C50.0565 201.316 50.7285 201.081 51.6032 201.081H62.6752C63.5925 201.081 64.2859 201.273 64.7552 201.657C65.2245 202.041 65.4592 202.596 65.4592 203.321C65.4592 204.857 64.5312 205.625 62.6752 205.625H54.6112V209.913H62.0352C63.8912 209.913 64.8192 210.671 64.8192 212.185C64.8192 212.911 64.5845 213.465 64.1152 213.849C63.6459 214.233 62.9525 214.425 62.0352 214.425H54.6112V219.097H62.6752C64.5312 219.097 65.4592 219.865 65.4592 221.401C65.4592 222.127 65.2245 222.681 64.7552 223.065C64.2859 223.449 63.5925 223.641 62.6752 223.641H51.6032ZM73.3894 217.273C71.6188 217.273 70.7334 216.527 70.7334 215.033C70.7334 213.561 71.6188 212.825 73.3894 212.825H79.4054C80.3014 212.825 80.9628 213.017 81.3894 213.401C81.8374 213.785 82.0614 214.329 82.0614 215.033C82.0614 215.737 81.8374 216.292 81.3894 216.697C80.9628 217.081 80.3014 217.273 79.4054 217.273H73.3894ZM95.5497 223.801C94.6537 223.801 93.9284 223.545 93.3737 223.033C92.8403 222.5 92.5737 221.796 92.5737 220.921V205.849H88.0617C87.123 205.849 86.419 205.657 85.9497 205.273C85.5017 204.868 85.2777 204.26 85.2777 203.449C85.2777 202.639 85.5017 202.041 85.9497 201.657C86.419 201.273 87.123 201.081 88.0617 201.081H103.038C103.976 201.081 104.67 201.273 105.118 201.657C105.587 202.041 105.822 202.639 105.822 203.449C105.822 204.26 105.587 204.868 105.118 205.273C104.67 205.657 103.976 205.849 103.038 205.849H98.5257V220.921C98.5257 221.796 98.2484 222.5 97.6937 223.033C97.1604 223.545 96.4457 223.801 95.5497 223.801ZM114.136 223.833C113.24 223.833 112.526 223.577 111.992 223.065C111.48 222.532 111.224 221.817 111.224 220.921V203.801C111.224 202.927 111.48 202.233 111.992 201.721C112.526 201.188 113.24 200.921 114.136 200.921C115.054 200.921 115.779 201.188 116.312 201.721C116.846 202.233 117.112 202.927 117.112 203.801V220.921C117.112 221.817 116.846 222.532 116.312 223.065C115.779 223.577 115.054 223.833 114.136 223.833ZM143.689 219.897C144.073 220.473 144.265 221.017 144.265 221.529C144.265 222.212 143.977 222.788 143.401 223.257C142.847 223.705 142.196 223.929 141.449 223.929C140.937 223.929 140.457 223.812 140.009 223.577C139.561 223.343 139.177 222.991 138.857 222.521L134.697 216.441C134.399 216.015 134.079 215.705 133.737 215.513C133.417 215.3 133.033 215.193 132.585 215.193H130.505V220.921C130.505 221.817 130.249 222.532 129.737 223.065C129.225 223.577 128.521 223.833 127.625 223.833C126.729 223.833 126.015 223.577 125.481 223.065C124.969 222.532 124.713 221.817 124.713 220.921V203.801C124.713 202.927 124.948 202.255 125.417 201.785C125.887 201.316 126.559 201.081 127.433 201.081H135.465C138.196 201.081 140.244 201.679 141.609 202.873C142.996 204.047 143.689 205.753 143.689 207.993C143.689 209.7 143.22 211.151 142.281 212.345C141.343 213.519 140.02 214.308 138.313 214.713C139.017 214.82 139.625 215.055 140.137 215.417C140.671 215.78 141.193 216.324 141.705 217.049L143.689 219.897ZM134.537 210.777C135.839 210.777 136.767 210.575 137.321 210.169C137.897 209.764 138.185 209.103 138.185 208.185C138.185 207.247 137.897 206.575 137.321 206.169C136.767 205.743 135.839 205.529 134.537 205.529H130.441V210.777H134.537ZM153.578 223.641C152.704 223.641 152.032 223.407 151.562 222.937C151.093 222.468 150.858 221.796 150.858 220.921V203.801C150.858 202.927 151.093 202.255 151.562 201.785C152.032 201.316 152.704 201.081 153.578 201.081H164.65C165.568 201.081 166.261 201.273 166.73 201.657C167.2 202.041 167.434 202.596 167.434 203.321C167.434 204.857 166.506 205.625 164.65 205.625H156.586V209.913H164.01C165.866 209.913 166.794 210.671 166.794 212.185C166.794 212.911 166.56 213.465 166.09 213.849C165.621 214.233 164.928 214.425 164.01 214.425H156.586V219.097H164.65C166.506 219.097 167.434 219.865 167.434 221.401C167.434 222.127 167.2 222.681 166.73 223.065C166.261 223.449 165.568 223.641 164.65 223.641H153.578Z" fill="#58C887"/>
</svg>
